<?xml version="1.0" encoding="utf-8"?>
<!-- Generator: Adobe Illustrator 24.0.0, SVG Export Plug-In . SVG Version: 6.00 Build 0)  -->
<svg version="1.1" id="Слой_1" xmlns="http://www.w3.org/2000/svg" xmlns:xlink="http://www.w3.org/1999/xlink" x="0px" y="0px"
	 viewBox="0 0 40 37" style="enable-background:new 0 0 40 37;" xml:space="preserve">
<style type="text/css">
	.st0{fill:#FFFFFF;}
</style>
<g>
	<path class="st0" d="M20,0L20,0C8.9,0,0,9,0,20l0,0c0,7,3.6,13.2,9.1,16.7c-4.7-5.1-5.6-11.8-2.8-16.1c2-3,5.4-4.1,7.2-4.5
		c0.5-0.1,0.8-0.6,0.7-1.1l-0.3-1.2c0-0.2,0-0.4,0-0.5l1.8-6c0.1-0.4,0.3-0.7,0.6-1c0.6-0.6,1.8-1.5,3.6-1.6l0,0c0,0,0,0,0,0
		s0,0,0,0l0,0c1.7,0,3,0.9,3.6,1.6c0.3,0.3,0.5,0.6,0.6,1l1.8,6c0,0.2,0.1,0.4,0,0.5L25.7,15c-0.1,0.5,0.2,1,0.7,1.1
		c1.8,0.4,5.2,1.5,7.2,4.6c2.1,3.3,1.5,11-3.1,16.3c5.7-3.5,9.4-9.8,9.4-17l0,0C39.9,9,31,0,20,0z"/>
</g>
<path class="st0" d="M19.3,9.6c-0.5-0.2-1.2-0.3-2,0c-0.8,0.3-1.2,0.9-1.3,1c-0.2,0.2-0.5,0.9-0.5,1.8c0,0.7,0.3,1.1,0.4,1.4
	c0,0.1,0.1,0.1,0.1,0.1c0.2,0.3,0.5,0.6,0.8,0.9c0.4,0.4,0.9,1,1.4,1.6c0.8,1.1,1.2,2,1.6,3.1l0,0l0,0l0,0l0,0l0,0l0,0c0,0,0,0,0,0
	h0l0,0c0,0,0,0,0,0l0,0v0l0,0c0.3-0.8,0.8-1.9,1.6-3.1c0.5-0.7,1-1.2,1.4-1.6c0.3-0.3,0.6-0.7,0.8-0.9c0-0.1,0.1-0.1,0.1-0.1
	c0.2-0.3,0.4-0.7,0.4-1.4c0.1-0.9-0.3-1.6-0.5-1.8c-0.1-0.2-0.5-0.7-1.3-1c-0.8-0.3-1.5-0.2-2,0c-0.2,0.1-0.4,0.1-0.6,0.1l0,0h-0.1
	l0,0C19.7,9.7,19.5,9.7,19.3,9.6z"/>
</svg>
